<?xml version="1.0" encoding="utf-8"?>
<svg version="1.0" id="Layer_1" xmlns="http://www.w3.org/2000/svg" xmlns:xlink="http://www.w3.org/1999/xlink" x="0px" y="0px"
	 viewBox="0 0 1000 1000" style="enable-background:new 0 0 1000 1000;" xml:space="preserve">
<style type="text/css">
	.st0{clip-path:url(#SVGID_2_);}
	.st1{clip-path:url(#SVGID_2_);fill:#FCFCFC;}
	.st2{clip-path:url(#SVGID_2_);fill:#03E5E5;}
</style>
<g>
	<defs>
		<rect id="SVGID_1_" x="-232.8" y="-247.3" width="1465.7" height="1494.5"/>
	</defs>
	<clipPath id="SVGID_2_">
		<use xlink:href="#SVGID_1_"  style="overflow:visible;"/>
	</clipPath>
	<path class="st0" d="M952.9,500c0,250.1-202.8,452.9-452.9,452.9C249.9,952.9,47.1,750.1,47.1,500S249.9,47.1,500,47.1
		C750.1,47.1,952.9,249.9,952.9,500"/>
	<path class="st1" d="M622.6,328.5c0-27.8,10.6-53,28-72c-2.8-0.1-5.6-0.2-8.5-0.2c-46.6,0-91.5,17.3-112.3,53.5
		c-16.4-38-50.1-53.5-93.3-53.5c-53.5,0-84.6,19-98.5,67.4h-1.7v-57H227.6v490.5h115.7V422.2c0-38,22.5-50.1,56.1-50.1
		c35.4,0,51,15.5,51,57v328.2h115.7V422.2c0-38,22.5-50.1,56.1-50.1c3.5,0,6.7,0.2,9.8,0.5C626,359.1,622.6,344.2,622.6,328.5"/>
	<path class="st1" d="M729,434.9c-20.6,0-39.9-5.9-56.2-16c0.2,3.2,0.4,6.6,0.4,10.2v328.2h115.7V416.5
		C771.8,428.1,751.2,434.9,729,434.9"/>
	<path class="st2" d="M815,328.6c0,47.4-38.5,85.9-85.9,85.9c-47.4,0-85.9-38.5-85.9-85.9c0-47.4,38.5-85.9,85.9-85.9
		C776.6,242.7,815,281.2,815,328.6"/>
</g>
</svg>
